<svg xmlns="http://www.w3.org/2000/svg" width="48" height="48"><path d="M30 18v3h3c1.659 0 3 1.341 3 3s-1.341 3-3 3h-6c-1.659 0-3-1.341-3-3v-6c0-1.659 1.341-3 3-3s3 1.341 3 3zm-3 27c-6.492 0-12.297-2.949-16.149-7.578.087-.066.189-.099.27-.18l4.221-3.912C18.087 36.762 22.263 39 27 39c8.286 0 15-6.714 15-15 0-8.283-6.714-15-15-15-7.257 0-13.308 5.154-14.697 12H15c1.212 0 2.31.732 2.772 1.851a3.008 3.008 0 0 1-.651 3.27l-6 6C10.536 32.706 9.768 33 9 33s-1.536-.294-2.121-.879l-6-6c-.858-.855-1.113-2.151-.651-3.27S1.788 21 3 21h3.24C7.695 10.827 16.422 3 27 3c11.598 0 21 9.402 21 21s-9.402 21-21 21z" fill="#66666f" fill-opacity=".941"/></svg>