<svg xmlns="http://www.w3.org/2000/svg" width="48" height="48"><path d="M45 42c-4.59.201-13.341.987-18.09 3.453C26.685 46.887 25.497 48 24 48s-2.682-1.113-2.91-2.547C16.344 42.987 7.59 42.201 3 42a3 3 0 0 1-3-3V3c0-1.656 1.344-3 3-3 .105 0 .192.051.297.06C23.928.591 24 6 24 6S24.072.591 44.703.06C44.808.051 44.895 0 45 0a3 3 0 0 1 3 3v36c0 1.659-1.341 3-3 3zM21 9.402C17.13 7.434 10.728 6.615 6 6.267v29.898c8.052.408 12.558 1.614 15 2.835V9.402zm21-3.135c-4.728.348-11.13 1.167-15 3.135V39c2.442-1.221 6.948-2.427 15-2.835V6.267zM39 12v6s-9 0-9 3v-6s0-3 9-3zm0 12v6s-9 0-9 3v-6s0-3 9-3zm-21-9v6c0-3-9-3-9-3v-6c9 0 9 3 9 3zm0 12v6c0-3-9-3-9-3v-6c9 0 9 3 9 3z" fill="#bdbdbd"/></svg>