<svg xmlns="http://www.w3.org/2000/svg" version="1" viewBox="0 0 72 72"><defs><radialGradient id="a" cy=".4" cx=".3"><stop offset=".1" stop-color="green"/><stop offset=".4" stop-color="#CDEFAC"/></radialGradient><radialGradient id="b" cy=".4" cx=".6"><stop offset="0" stop-color="#B3E87E"/><stop offset="1" stop-color="#ABE66F"/></radialGradient><radialGradient id="c" cy=".4" cx=".6"><stop offset="0" stop-color="#4B8616"/><stop offset="1" stop-color="#3F7513"/></radialGradient><radialGradient id="d" cy=".4" cx=".6"><stop offset="0" stop-color="#80D832"/><stop offset="1" stop-color="#74D325"/></radialGradient></defs><g stroke="#000" stroke-opacity=".1" stroke-width=".5"><path d="M33 39L22 21.6M22 21.6L19.4 7M22 21.6L35.7 7M33 39l14-18.7M33 39l27.4-5.6M60.4 33.4l5-15.2M33 39l26.7 17.5M33 39l8.8 15.6M33 39l-.3 24.2M33 39l-20.7 2.5M12.3 41.5l6.4 18M12.3 41.5L6.8 55.2"/></g><circle cx="33" cy="39" r="8.2" fill="url(#a)"/><circle cx="22" cy="21.6" r="7.5" fill="url(#b)"/><circle cx="12.3" cy="41.5" r="6.7" fill="url(#c)"/><circle cx="6.8" cy="55.2" r="4.2" fill="url(#b)"/><circle cx="18.7" cy="59.5" r="5.4" fill="url(#d)"/><circle cx="32.7" cy="63.2" r="5.8" fill="url(#d)"/><circle cx="41.8" cy="54.6" r="4" fill="url(#b)"/><circle cx="19.4" cy="7" r="4.7" fill="url(#b)"/><circle cx="35.7" cy="7" r="4.8" fill="url(#d)"/><circle cx="60.4" cy="33.4" r="6.8" fill="url(#d)"/><circle cx="65.4" cy="18.2" r="4.5" fill="url(#b)"/><circle cx="59.7" cy="56.5" r="10" fill="url(#c)"/><circle cx="47" cy="20.3" r="9.7" fill="url(#d)"/><style id="stylish-1"></style></svg>